<?xml version="1.0" encoding="UTF-8" standalone="no" ?>
<!DOCTYPE svg PUBLIC "-//W3C//DTD SVG 1.1//EN" "http://www.w3.org/Graphics/SVG/1.1/DTD/svg11.dtd">
<svg xmlns="http://www.w3.org/2000/svg" xmlns:xlink="http://www.w3.org/1999/xlink" version="1.1" width="1280" height="1024" viewBox="0 0 1280 1024" xml:space="preserve">
<desc>Created with Fabric.js 4.4.0</desc>
<defs>
</defs>
<g transform="matrix(1 0 0 1 640 512)" id="background-logo"  >
<rect style="stroke: none; stroke-width: 0; stroke-dasharray: none; stroke-linecap: butt; stroke-dashoffset: 0; stroke-linejoin: miter; stroke-miterlimit: 4; fill: rgb(255,255,255); fill-opacity: 0; fill-rule: nonzero; opacity: 1;"  paint-order="stroke"  x="-640" y="-512" rx="0" ry="0" width="1280" height="1024" />
</g>
<g transform="matrix(1.9211538461538462 0 0 1.9211538461538462 640 381.3722225233264)" id="logo-logo"  >
<g style=""  paint-order="stroke"   >
		<g transform="matrix(0.44812713659128167 0 0 -0.44812713659128167 -38.78110481420339 0)"  >
<path style="stroke: none; stroke-width: 1; stroke-dasharray: none; stroke-linecap: butt; stroke-dashoffset: 0; stroke-linejoin: miter; stroke-miterlimit: 4; fill: rgb(169,135,35); fill-rule: nonzero; opacity: 1;"  paint-order="stroke"  transform=" translate(-697.5450000000001, -662.0055626451917)" d="M 789.918 649.031 C 761.23 697.5509999999999 732.73 746.1679999999999 705.3050000000001 795.367 C 689.258 768.098 673.2270000000001 740.8159999999999 656.984 713.668 C 644.5 692.797 625.52 680.164 605.172 675.586 C 631.402 630.551 657.633 585.5160000000001 683.867 540.484 C 702.3589999999999 522.813 717.582 524.711 730.934 547.6020000000001 C 750.637 581.3910000000001 770.2339999999999 615.2340000000002 789.918 649.0310000000001" stroke-linecap="round" />
</g>
		<g transform="matrix(0.38173793117035104 0 0 -0.38173793117035104 -71.35723285813424 -58.947279317589164)"  >
<path style="stroke: none; stroke-width: 1; stroke-dasharray: none; stroke-linecap: butt; stroke-dashoffset: 0; stroke-linejoin: miter; stroke-miterlimit: 4; fill: rgb(234,196,25); fill-rule: nonzero; opacity: 1;"  paint-order="stroke"  transform=" translate(-588.8266406857132, -869.2202350178593)" d="M 740.246 966 C 754.793 991.387 744.879 1009.15 715.918 1009.4 C 682.41 1009.6899999999999 499.418 1009.4599999999999 461.957 1009.41 C 454.77299999999997 1009.4 447.539 1007.43 441.988 1002.86 C 432.266 994.875 426.934 981.383 434.02 968.871 C 452.301 936.582 552.566 765.8979999999999 566.297 742.324 C 578.4920000000001 724.4839999999999 594.0980000000001 723.8589999999999 608.6370000000001 743.8359999999999 C 608.6370000000001 743.8359999999999 724.4490000000001 938.434 740.2460000000001 965.9999999999999" stroke-linecap="round" />
</g>
		<g transform="matrix(0.5477109447226776 0 0 -0.5477109447226776 36.45423852535123 -86.86967478381561)"  >
<path style="stroke: none; stroke-width: 1; stroke-dasharray: none; stroke-linecap: butt; stroke-dashoffset: 0; stroke-linejoin: miter; stroke-miterlimit: 4; fill: rgb(169,135,35); fill-rule: nonzero; opacity: 1;"  paint-order="stroke"  transform=" translate(-940.4025307247559, -957.5835)" d="M 975.504 968.18 C 987.168 988.285 991.441 1009.3499999999999 957.363 1009.53 C 947.711 1009.48 929.5980000000001 1009.42 919.945 1009.4 C 893.0590000000001 1009.35 892.2660000000001 985.809 904.0780000000001 966 C 915.9920000000001 946.016 927.4140000000001 925.738 939.133 905.637 C 951.2420000000001 926.492 963.402 947.3159999999999 975.504 968.18" stroke-linecap="round" />
</g>
		<g transform="matrix(0.3485433284598857 0 0 -0.34854332845988567 42.65921529562371 0)"  >
<path style="stroke: none; stroke-width: 1; stroke-dasharray: none; stroke-linecap: butt; stroke-dashoffset: 0; stroke-linejoin: miter; stroke-miterlimit: 4; fill: rgb(234,196,25); fill-rule: nonzero; opacity: 1;"  paint-order="stroke"  transform=" translate(-968.6572350008277, -668.6626313738781)" d="M 1177.24 1009.46 C 1138.16 1009.61 1099.07 1009.57 1059.99 1009.46 C 1053.11 1009.44 1046.23 1008.6600000000001 1038.36 1008.1700000000001 C 1041.1599999999999 968.883 987.8789999999999 884.5160000000001 956.3749999999999 826.5630000000001 C 906.8279999999999 735.4260000000002 852.6639999999999 646.7930000000001 800.2769999999998 557.2070000000001 C 781.0269999999998 524.2890000000001 766.5589999999999 487.0700000000001 722.5389999999998 473.2420000000001 C 749.9649999999998 426.40200000000004 774.4609999999998 382.9220000000001 800.6909999999998 340.51200000000006 C 812.4919999999998 321.4340000000001 834.2029999999997 324.30100000000004 846.7539999999998 345.59000000000003 C 880.9099999999997 403.535 1119.37 813.25 1204.7899999999997 959.9530000000001 C 1224.2399999999998 993.359 1215.3899999999996 1009.3000000000001 1177.2399999999998 1009.46" stroke-linecap="round" />
</g>
		<g transform="matrix(0.3070500750718041 0 0 -0.3070500750718041 0 0)"  >
<path style="stroke: none; stroke-width: 1; stroke-dasharray: none; stroke-linecap: butt; stroke-dashoffset: 0; stroke-linejoin: miter; stroke-miterlimit: 4; fill: rgb(19,17,18); fill-rule: nonzero; opacity: 1;"  paint-order="stroke"  transform=" translate(-822.1620998366059, -669.5943074735826)" d="M 1204.79 959.953 C 1119.37 813.25 880.91 403.535 846.754 345.59 C 834.203 324.301 812.492 321.43399999999997 800.691 340.512 C 774.461 382.922 749.965 426.402 722.539 473.24199999999996 C 766.559 487.06999999999994 781.027 524.289 800.277 557.207 C 852.664 646.793 906.8280000000001 735.4259999999999 956.375 826.563 C 987.879 884.516 1041.16 968.883 1038.36 1008.17 C 1046.2299999999998 1008.66 1053.11 1009.4399999999999 1059.99 1009.4599999999999 C 1099.07 1009.5699999999999 1138.16 1009.6099999999999 1177.24 1009.4599999999999 C 1215.39 1009.3 1224.24 993.3589999999999 1204.79 959.953 Z M 683.867 540.484 C 657.6329999999999 585.5160000000001 631.4019999999999 630.551 605.172 675.586 C 625.52 680.164 644.5 692.797 656.984 713.668 C 673.2270000000001 740.816 689.258 768.098 705.3050000000001 795.367 C 732.73 746.168 761.23 697.5509999999999 789.9180000000001 649.031 C 770.2340000000002 615.2339999999999 750.6370000000002 581.391 730.9340000000001 547.602 C 717.5820000000001 524.711 702.359 522.813 683.8670000000001 540.4839999999999 Z M 566.297 742.3240000000001 C 552.566 765.898 452.30100000000004 936.5820000000001 434.02000000000004 968.8710000000001 C 426.934 981.383 432.266 994.8750000000001 441.98800000000006 1002.8600000000001 C 447.53900000000004 1007.4300000000002 454.7730000000001 1009.4000000000001 461.95700000000005 1009.4100000000001 C 499.41800000000006 1009.46 682.4100000000001 1009.69 715.9180000000001 1009.4000000000001 C 744.8790000000001 1009.1500000000001 754.7930000000001 991.3870000000001 740.2460000000001 966.0000000000001 C 724.449 938.434 608.637 743.836 608.637 743.836 C 594.098 723.859 578.492 724.484 566.297 742.324 Z M 904.078 966 C 892.266 985.809 893.059 1009.35 919.9449999999999 1009.4 C 929.598 1009.42 947.7109999999999 1009.48 957.3629999999999 1009.53 C 991.4409999999999 1009.35 987.1679999999999 988.285 975.5039999999999 968.18 C 963.4019999999999 947.3159999999999 951.242 926.492 939.1329999999999 905.637 C 927.4139999999999 925.7379999999999 915.992 946.016 904.078 966 Z M 1188.88 1064.27 C 1114.5100000000002 1064.71 938.9800000000001 1064.33 925.7500000000001 1064.27 C 857.422 1064 819.961 1002 853.57 942.809 C 871.156 911.844 889 881.023 906.926 850.25 C 878.695 801.645 850.43 753.066 822.16 704.484 C 793.9019999999999 753.063 765.641 801.6370000000001 737.406 850.23 C 755.305 881.023 773.164 911.84 790.75 942.809 C 824.359 1002 786.902 1064 718.574 1064.27 C 674.9839999999999 1064.45 499.33599999999996 1064.54 455.109 1064.2 C 390.637 1063.71 352.55899999999997 1001.34 384.113 945.2420000000001 C 422.80899999999997 876.465 713.543 378.504 751.4100000000001 314.5160000000001 C 767.1880000000001 287.86300000000006 790.09 271.9920000000001 822.2850000000001 275.09400000000005 C 853.8750000000001 272.56300000000005 876.2420000000001 287.02700000000004 891.2460000000001 312.66400000000004 C 1014.2500000000001 522.898 1137.23 733.152 1259.4900000000002 943.8199999999999 C 1292.2600000000002 1000.28 1254.4300000000003 1063.87 1188.8800000000003 1064.27" stroke-linecap="round" />
</g>
</g>
</g>
<g transform="matrix(1.9211538461538462 0 0 1.9211538461538462 617.8029884615385 715.3107891328489)" id="text-logo-path-group"  >
<g style=""  paint-order="stroke"   >
		<g transform="matrix(1 0 0 1 0 0)" id="text-logo-path-0"  >
<path style="stroke: none; stroke-width: 0; stroke-dasharray: none; stroke-linecap: butt; stroke-dashoffset: 0; stroke-linejoin: miter; stroke-miterlimit: 4; fill: rgb(19,17,18); fill-rule: nonzero; opacity: 1;"  paint-order="stroke"  transform=" translate(-230.49499999999998, 19.419999999999998)" d="M 37.58 -38.27 L 37.58 -38.27 Q 40.7 -36.73 40.7 -34.87 L 40.7 -34.87 Q 40.7 -34.03 39.91 -32.33 L 39.91 -32.33 L 25.28 -2.65 Q 24.7 -1.48 23.51 -0.77 Q 22.31 -0.05 21.04 -0.05 L 21.04 -0.05 L 20.51 -0.05 Q 19.19 -0.05 17.99 -0.77 Q 16.8 -1.48 16.22 -2.65 L 16.22 -2.65 L 1.59 -32.33 Q 0.79 -34.03 0.79 -34.87 L 0.79 -34.87 Q 0.79 -36.73 3.92 -38.27 L 3.92 -38.27 Q 5.67 -39.17 6.6 -39.17 Q 7.53 -39.17 8 -38.95 Q 8.48 -38.74 8.9 -38.21 L 8.9 -38.21 Q 9.38 -37.58 9.78 -36.81 Q 10.18 -36.04 11.82 -32.41 Q 13.46 -28.78 15.34 -24.7 Q 17.22 -20.62 18.89 -16.99 Q 20.56 -13.36 20.78 -12.93 L 20.78 -12.93 L 31.38 -36.15 Q 31.8 -37.15 32.12 -37.74 L 32.12 -37.74 Q 33.07 -39.17 34.45 -39.17 Q 35.83 -39.17 37.58 -38.27 Z M 61.43 -14.73 L 61.43 -9.38 L 77.75 -9.38 Q 78.97 -9.38 79.58 -9.3 Q 80.19 -9.22 80.98 -8.8 L 80.98 -8.8 Q 82.41 -8.06 82.41 -4.66 L 82.41 -4.66 Q 82.41 -0.95 80.45 -0.32 L 80.45 -0.32 Q 79.55 0 77.7 0 L 77.7 0 L 56.71 0 Q 53 0 52.36 -2.01 L 52.36 -2.01 Q 52.05 -2.86 52.05 -4.72 L 52.05 -4.72 L 52.05 -34.19 Q 52.05 -36.89 53.05 -37.87 Q 54.06 -38.85 56.87 -38.85 L 56.87 -38.85 L 77.75 -38.85 Q 78.97 -38.85 79.58 -38.77 Q 80.19 -38.69 80.98 -38.27 L 80.98 -38.27 Q 82.41 -37.52 82.41 -34.13 L 82.41 -34.13 Q 82.41 -30.42 80.45 -29.79 L 80.45 -29.79 Q 79.55 -29.47 77.7 -29.47 L 77.7 -29.47 L 61.43 -29.47 L 61.43 -24.11 L 71.92 -24.11 Q 73.14 -24.11 73.75 -24.04 Q 74.36 -23.96 75.15 -23.53 L 75.15 -23.53 Q 76.59 -22.79 76.59 -19.4 L 76.59 -19.4 Q 76.59 -15.69 74.57 -15.05 L 74.57 -15.05 Q 73.67 -14.73 71.81 -14.73 L 71.81 -14.73 L 61.43 -14.73 Z M 103.67 -14.73 L 103.67 -9.38 L 119.99 -9.38 Q 121.21 -9.38 121.82 -9.3 Q 122.43 -9.22 123.22 -8.8 L 123.22 -8.8 Q 124.66 -8.06 124.66 -4.66 L 124.66 -4.66 Q 124.66 -0.95 122.69 -0.32 L 122.69 -0.32 Q 121.79 0 119.94 0 L 119.94 0 L 98.95 0 Q 95.24 0 94.61 -2.01 L 94.61 -2.01 Q 94.29 -2.86 94.29 -4.72 L 94.29 -4.72 L 94.29 -34.19 Q 94.29 -36.89 95.29 -37.87 Q 96.3 -38.85 99.11 -38.85 L 99.11 -38.85 L 119.99 -38.85 Q 121.21 -38.85 121.82 -38.77 Q 122.43 -38.69 123.22 -38.27 L 123.22 -38.27 Q 124.66 -37.52 124.66 -34.13 L 124.66 -34.13 Q 124.66 -30.42 122.69 -29.79 L 122.69 -29.79 Q 121.79 -29.47 119.94 -29.47 L 119.94 -29.47 L 103.67 -29.47 L 103.67 -24.11 L 114.16 -24.11 Q 115.38 -24.11 115.99 -24.04 Q 116.6 -23.96 117.39 -23.53 L 117.39 -23.53 Q 118.83 -22.79 118.83 -19.4 L 118.83 -19.4 Q 118.83 -15.69 116.81 -15.05 L 116.81 -15.05 Q 115.91 -14.73 114.06 -14.73 L 114.06 -14.73 L 103.67 -14.73 Z M 178.19 -38.85 Q 180.25 -38.85 181.23 -38.5 Q 182.21 -38.16 182.64 -37.37 L 182.64 -37.37 Q 183.22 -36.15 183.22 -34.08 L 183.22 -34.08 L 183.22 -13.57 Q 183.22 -8 179.19 -3.74 Q 175.16 0.53 168.91 0.53 L 168.91 0.53 Q 165.41 0.53 162.71 -1.01 L 162.71 -1.01 Q 160.27 -2.33 159.32 -3.39 L 159.32 -3.39 L 158.89 -3.82 Q 157.04 -5.78 157.04 -7.18 Q 157.04 -8.59 158.89 -10.49 Q 160.75 -12.4 162.18 -12.4 Q 163.61 -12.4 165.36 -10.65 Q 167.11 -8.9 169.15 -8.9 Q 171.19 -8.9 172.51 -10.28 Q 173.84 -11.66 173.84 -13.94 L 173.84 -13.94 L 173.84 -33.76 Q 173.84 -36.94 174.9 -37.84 L 174.9 -37.84 Q 176.12 -38.85 178.19 -38.85 Z M 214.12 -39.33 L 214.12 -39.33 Q 221.96 -39.33 227.74 -33.66 Q 233.52 -27.98 233.52 -19.58 Q 233.52 -11.18 228.01 -5.27 Q 222.49 0.64 214.44 0.64 Q 206.38 0.64 200.74 -5.19 Q 195.09 -11.02 195.09 -19.08 L 195.09 -19.08 Q 195.09 -23.48 196.68 -27.32 Q 198.27 -31.16 200.92 -33.76 Q 203.57 -36.36 207.02 -37.84 Q 210.46 -39.33 214.12 -39.33 Z M 204.47 -19.34 Q 204.47 -14.63 207.52 -11.69 Q 210.57 -8.74 214.33 -8.74 Q 218.09 -8.74 221.12 -11.61 Q 224.14 -14.47 224.14 -19.29 Q 224.14 -24.11 221.09 -27.03 Q 218.04 -29.95 214.28 -29.95 Q 210.52 -29.95 207.49 -27 Q 204.47 -24.06 204.47 -19.34 Z M 269.4 -37.42 Q 269.82 -38.21 270.83 -38.53 Q 271.84 -38.85 273.37 -38.85 Q 274.91 -38.85 275.81 -38.58 Q 276.71 -38.32 277.19 -37.95 Q 277.67 -37.58 277.93 -36.89 L 277.93 -36.89 Q 278.2 -35.99 278.2 -34.13 L 278.2 -34.13 L 278.2 -4.72 Q 278.2 -3.5 278.12 -2.89 Q 278.04 -2.28 277.61 -1.48 L 277.61 -1.48 Q 276.87 -0.05 273.48 -0.05 L 273.48 -0.05 Q 269.77 -0.05 269.13 -2.01 L 269.13 -2.01 Q 268.82 -2.92 268.82 -4.77 L 268.82 -4.77 L 268.82 -15.53 L 254.77 -15.53 L 254.77 -4.72 Q 254.77 -3.5 254.69 -2.89 Q 254.61 -2.28 254.19 -1.48 L 254.19 -1.48 Q 253.45 -0.05 250.05 -0.05 L 250.05 -0.05 Q 246.34 -0.05 245.71 -2.01 L 245.71 -2.01 Q 245.39 -2.92 245.39 -4.77 L 245.39 -4.77 L 245.39 -34.19 Q 245.39 -35.4 245.47 -36.01 Q 245.55 -36.62 245.97 -37.42 L 245.97 -37.42 Q 246.71 -38.85 250.11 -38.85 L 250.11 -38.85 Q 253.82 -38.85 254.51 -36.89 L 254.51 -36.89 Q 254.77 -35.99 254.77 -34.13 L 254.77 -34.13 L 254.77 -23.32 L 268.82 -23.32 L 268.82 -34.19 Q 268.82 -35.4 268.9 -36.01 Q 268.97 -36.62 269.4 -37.42 Z M 315.96 -37.23 Q 316.46 -38.16 317.47 -38.48 Q 318.48 -38.8 319.99 -38.8 Q 321.5 -38.8 322.43 -38.53 Q 323.35 -38.27 323.8 -37.89 Q 324.25 -37.52 324.47 -36.78 L 324.47 -36.78 Q 324.78 -35.93 324.78 -34.08 L 324.78 -34.08 L 324.78 -4.66 Q 324.78 -3.39 324.7 -2.81 Q 324.63 -2.23 324.2 -1.43 L 324.2 -1.43 Q 323.46 0 320.07 0 L 320.07 0 Q 318 0 317.2 -0.32 Q 316.41 -0.64 315.88 -1.32 L 315.88 -1.32 Q 303.95 -17.22 300.19 -22.1 L 300.19 -22.1 L 300.19 -4.66 Q 300.19 -3.39 300.11 -2.81 Q 300.03 -2.23 299.61 -1.43 L 299.61 -1.43 Q 298.87 0 295.47 0 L 295.47 0 Q 292.19 0 291.45 -1.43 L 291.45 -1.43 Q 291.02 -2.23 290.94 -2.86 Q 290.86 -3.5 290.86 -4.72 L 290.86 -4.72 L 290.86 -34.29 Q 290.86 -36.3 291.37 -37.23 Q 291.87 -38.16 292.88 -38.48 Q 293.88 -38.8 295.47 -38.8 Q 297.06 -38.8 297.99 -38.5 Q 298.92 -38.21 299.29 -37.84 L 299.29 -37.84 Q 299.5 -37.68 300.51 -36.46 L 300.51 -36.46 Q 311.69 -21.25 315.46 -16.38 L 315.46 -16.38 L 315.46 -34.29 Q 315.46 -36.3 315.96 -37.23 Z M 338.51 -4.88 L 338.03 -5.46 Q 336.66 -7.15 336.66 -8.51 Q 336.66 -9.86 338.94 -12.08 L 338.94 -12.08 Q 340.26 -13.36 341.74 -13.36 Q 343.23 -13.36 345.88 -10.71 L 345.88 -10.71 Q 346.62 -9.8 348 -8.98 Q 349.38 -8.16 350.54 -8.16 L 350.54 -8.16 Q 355.47 -8.16 355.47 -12.19 L 355.47 -12.19 Q 355.47 -13.41 354.12 -14.23 Q 352.77 -15.05 350.75 -15.42 Q 348.74 -15.79 346.41 -16.62 Q 344.08 -17.44 342.06 -18.55 Q 340.05 -19.66 338.7 -22.07 Q 337.35 -24.49 337.35 -27.88 L 337.35 -27.88 Q 337.35 -32.54 340.82 -36.01 Q 344.29 -39.48 350.28 -39.48 L 350.28 -39.48 Q 353.46 -39.48 356.08 -38.66 Q 358.7 -37.84 359.71 -36.99 L 359.71 -36.99 L 361.04 -35.99 Q 362.68 -34.45 362.68 -33.39 Q 362.68 -32.33 361.41 -30.47 L 361.41 -30.47 Q 359.61 -27.82 357.7 -27.82 L 357.7 -27.82 Q 356.58 -27.82 354.94 -28.88 L 354.94 -28.88 Q 354.78 -28.99 354.33 -29.41 Q 353.88 -29.84 353.51 -30.1 L 353.51 -30.1 Q 352.4 -30.79 350.67 -30.79 Q 348.95 -30.79 347.81 -29.97 Q 346.67 -29.15 346.67 -27.69 Q 346.67 -26.23 348.02 -25.33 Q 349.38 -24.43 351.39 -24.11 Q 353.4 -23.8 355.79 -23.13 Q 358.17 -22.47 360.19 -21.52 Q 362.2 -20.56 363.55 -18.21 Q 364.91 -15.85 364.91 -12.4 Q 364.91 -8.96 363.53 -6.33 Q 362.15 -3.71 359.92 -2.28 L 359.92 -2.28 Q 355.63 0.53 350.75 0.53 L 350.75 0.53 Q 348.26 0.53 346.04 -0.08 Q 343.81 -0.69 342.43 -1.59 L 342.43 -1.59 Q 339.62 -3.29 338.51 -4.88 L 338.51 -4.88 Z M 395.01 -39.33 L 395.01 -39.33 Q 402.85 -39.33 408.63 -33.66 Q 414.41 -27.98 414.41 -19.58 Q 414.41 -11.18 408.9 -5.27 Q 403.38 0.64 395.33 0.64 Q 387.27 0.64 381.63 -5.19 Q 375.98 -11.02 375.98 -19.08 L 375.98 -19.08 Q 375.98 -23.48 377.57 -27.32 Q 379.16 -31.16 381.81 -33.76 Q 384.46 -36.36 387.91 -37.84 Q 391.35 -39.33 395.01 -39.33 Z M 385.36 -19.34 Q 385.36 -14.63 388.41 -11.69 Q 391.46 -8.74 395.22 -8.74 Q 398.98 -8.74 402.01 -11.61 Q 405.03 -14.47 405.03 -19.29 Q 405.03 -24.11 401.98 -27.03 Q 398.93 -29.95 395.17 -29.95 Q 391.41 -29.95 388.38 -27 Q 385.36 -24.06 385.36 -19.34 Z M 451.37 -37.23 Q 451.88 -38.16 452.89 -38.48 Q 453.89 -38.8 455.4 -38.8 Q 456.91 -38.8 457.84 -38.53 Q 458.77 -38.27 459.22 -37.89 Q 459.67 -37.52 459.88 -36.78 L 459.88 -36.78 Q 460.2 -35.93 460.2 -34.08 L 460.2 -34.08 L 460.2 -4.66 Q 460.2 -3.39 460.12 -2.81 Q 460.04 -2.23 459.62 -1.43 L 459.62 -1.43 Q 458.87 0 455.48 0 L 455.48 0 Q 453.42 0 452.62 -0.32 Q 451.83 -0.64 451.3 -1.32 L 451.3 -1.32 Q 439.37 -17.22 435.61 -22.1 L 435.61 -22.1 L 435.61 -4.66 Q 435.61 -3.39 435.53 -2.81 Q 435.45 -2.23 435.02 -1.43 L 435.02 -1.43 Q 434.28 0 430.89 0 L 430.89 0 Q 427.6 0 426.86 -1.43 L 426.86 -1.43 Q 426.44 -2.23 426.36 -2.86 Q 426.28 -3.5 426.28 -4.72 L 426.28 -4.72 L 426.28 -34.29 Q 426.28 -36.3 426.78 -37.23 Q 427.29 -38.16 428.29 -38.48 Q 429.3 -38.8 430.89 -38.8 Q 432.48 -38.8 433.41 -38.5 Q 434.34 -38.21 434.71 -37.84 L 434.71 -37.84 Q 434.92 -37.68 435.93 -36.46 L 435.93 -36.46 Q 447.11 -21.25 450.87 -16.38 L 450.87 -16.38 L 450.87 -34.29 Q 450.87 -36.3 451.37 -37.23 Z" stroke-linecap="round" />
</g>
</g>
</g>
<g transform="matrix(1.9211538461538462 0 0 1.9211538461538462 629.1233875000001 825.5614281328487)" id="tagline-93161bb1-267c-4d3e-9e7c-e5762b8ab627-logo-path-group"  >
<g style=""  paint-order="stroke"   >
		<g transform="matrix(1 0 0 1 0 0)" id="tagline-93161bb1-267c-4d3e-9e7c-e5762b8ab627-logo-path-0"  >
<path style="stroke: none; stroke-width: 0; stroke-dasharray: none; stroke-linecap: butt; stroke-dashoffset: 0; stroke-linejoin: miter; stroke-miterlimit: 4; fill: rgb(62,55,39); fill-rule: nonzero; opacity: 1;"  paint-order="stroke"  transform=" translate(-166.945, 9.49)" d="M 23.84 -18.95 L 23.84 -18.95 Q 25.58 -18.33 25.58 -17.29 L 25.58 -17.29 Q 25.58 -16.95 25.27 -16.02 L 25.27 -16.02 L 20.28 -1.59 Q 20.23 -1.4 20.1 -1.14 Q 19.97 -0.88 19.41 -0.46 Q 18.85 -0.03 18.08 -0.03 Q 17.32 -0.03 16.76 -0.46 Q 16.2 -0.88 16.02 -1.3 L 16.02 -1.3 L 12.97 -10.27 Q 10.09 -1.74 10.04 -1.59 Q 9.98 -1.43 9.8 -1.14 Q 9.62 -0.86 9.39 -0.62 L 9.39 -0.62 Q 8.79 -0.03 7.96 -0.03 Q 7.12 -0.03 6.59 -0.42 Q 6.06 -0.81 5.88 -1.2 L 5.88 -1.2 L 5.69 -1.59 L 0.68 -16.02 Q 0.39 -16.87 0.39 -17.29 L 0.39 -17.29 Q 0.39 -18.33 2.13 -18.93 L 2.13 -18.93 Q 2.89 -19.19 3.5 -19.19 Q 4.11 -19.19 4.43 -18.77 Q 4.76 -18.36 5.02 -17.5 L 5.02 -17.5 L 7.88 -8.81 L 10.71 -17.37 Q 11.08 -18.46 12.04 -18.88 L 12.04 -18.88 Q 12.45 -19.06 13.12 -19.06 Q 13.78 -19.06 14.35 -18.63 Q 14.92 -18.2 15.08 -17.78 L 15.08 -17.78 L 18.07 -8.76 L 20.93 -17.5 Q 21.14 -18.1 21.27 -18.38 Q 21.4 -18.67 21.75 -18.94 Q 22.1 -19.21 22.62 -19.21 Q 23.14 -19.21 23.84 -18.95 Z M 36.43 -7.23 L 36.43 -4.6 L 44.43 -4.6 Q 45.03 -4.6 45.33 -4.56 Q 45.63 -4.52 46.02 -4.32 L 46.02 -4.32 Q 46.72 -3.95 46.72 -2.29 L 46.72 -2.29 Q 46.72 -0.47 45.76 -0.16 L 45.76 -0.16 Q 45.32 0 44.41 0 L 44.41 0 L 34.11 0 Q 32.29 0 31.98 -0.99 L 31.98 -0.99 Q 31.82 -1.4 31.82 -2.31 L 31.82 -2.31 L 31.82 -16.77 Q 31.82 -18.1 32.32 -18.58 Q 32.81 -19.06 34.19 -19.06 L 34.19 -19.06 L 44.43 -19.06 Q 45.03 -19.06 45.33 -19.02 Q 45.63 -18.98 46.02 -18.77 L 46.02 -18.77 Q 46.72 -18.41 46.72 -16.74 L 46.72 -16.74 Q 46.72 -14.92 45.76 -14.61 L 45.76 -14.61 Q 45.32 -14.46 44.41 -14.46 L 44.41 -14.46 L 36.43 -14.46 L 36.43 -11.83 L 41.57 -11.83 Q 42.17 -11.83 42.47 -11.79 Q 42.77 -11.75 43.16 -11.54 L 43.16 -11.54 Q 43.86 -11.18 43.86 -9.52 L 43.86 -9.52 Q 43.86 -7.7 42.87 -7.38 L 42.87 -7.38 Q 42.43 -7.23 41.52 -7.23 L 41.52 -7.23 L 36.43 -7.23 Z M 66.79 -10.22 L 66.79 -10.22 Q 68.33 -8.4 68.33 -6.14 L 68.33 -6.14 Q 68.28 -3.54 66.55 -1.78 Q 64.82 -0.03 62.35 -0.03 L 62.35 -0.03 L 55.51 -0.03 Q 53.69 -0.03 53.38 -1.01 L 53.38 -1.01 Q 53.22 -1.46 53.22 -2.37 L 53.22 -2.37 L 53.22 -16.8 Q 53.22 -17.42 53.26 -17.71 Q 53.3 -17.99 53.51 -18.38 L 53.51 -18.38 Q 53.87 -19.08 55.54 -19.08 L 55.54 -19.08 L 62.09 -19.08 Q 64.48 -19.08 66.09 -17.42 L 66.09 -17.42 Q 67.78 -15.73 67.78 -13.36 L 67.78 -13.36 Q 67.78 -11.65 66.79 -10.22 Z M 63.73 -6.4 L 63.73 -6.4 Q 63.73 -7.02 63.58 -7.38 Q 63.44 -7.75 63.1 -7.9 L 63.1 -7.9 Q 62.58 -8.11 61.65 -8.11 Q 60.71 -8.11 60.24 -8.48 Q 59.77 -8.84 59.77 -9.97 Q 59.77 -11.1 60.26 -11.47 Q 60.74 -11.83 61.85 -11.83 L 61.85 -11.83 Q 62.89 -11.83 63.1 -12.38 L 63.1 -12.38 Q 63.18 -12.66 63.18 -13.31 Q 63.18 -13.96 62.75 -14.22 Q 62.32 -14.48 61.46 -14.48 L 61.46 -14.48 L 57.82 -14.48 L 57.82 -4.63 L 62.09 -4.63 Q 63.73 -4.63 63.73 -6.4 Z M 88.53 -19.08 L 88.53 -19.08 L 93.34 -19.06 Q 97.11 -19.06 99.97 -16.34 Q 102.83 -13.62 102.83 -9.66 Q 102.83 -5.69 100.04 -2.86 Q 97.24 -0.03 93.26 -0.03 L 93.26 -0.03 L 88.5 -0.03 Q 86.92 -0.03 86.53 -0.68 L 86.53 -0.68 Q 86.22 -1.22 86.22 -2.34 L 86.22 -2.34 L 86.22 -16.8 Q 86.22 -17.42 86.26 -17.71 Q 86.29 -17.99 86.5 -18.38 L 86.5 -18.38 Q 86.87 -19.08 88.53 -19.08 Z M 93.34 -4.63 Q 95.21 -4.63 96.72 -6.02 Q 98.23 -7.41 98.23 -9.52 Q 98.23 -11.62 96.76 -13.04 Q 95.29 -14.46 93.31 -14.46 L 93.31 -14.46 L 90.82 -14.46 L 90.82 -4.63 L 93.34 -4.63 Z M 113.93 -7.23 L 113.93 -4.6 L 121.94 -4.6 Q 122.54 -4.6 122.84 -4.56 Q 123.14 -4.52 123.53 -4.32 L 123.53 -4.32 Q 124.23 -3.95 124.23 -2.29 L 124.23 -2.29 Q 124.23 -0.47 123.27 -0.16 L 123.27 -0.16 Q 122.82 0 121.91 0 L 121.91 0 L 111.62 0 Q 109.8 0 109.49 -0.99 L 109.49 -0.99 Q 109.33 -1.4 109.33 -2.31 L 109.33 -2.31 L 109.33 -16.77 Q 109.33 -18.1 109.82 -18.58 Q 110.32 -19.06 111.7 -19.06 L 111.7 -19.06 L 121.94 -19.06 Q 122.54 -19.06 122.84 -19.02 Q 123.14 -18.98 123.53 -18.77 L 123.53 -18.77 Q 124.23 -18.41 124.23 -16.74 L 124.23 -16.74 Q 124.23 -14.92 123.27 -14.61 L 123.27 -14.61 Q 122.82 -14.46 121.91 -14.46 L 121.91 -14.46 L 113.93 -14.46 L 113.93 -11.83 L 119.08 -11.83 Q 119.68 -11.83 119.98 -11.79 Q 120.28 -11.75 120.67 -11.54 L 120.67 -11.54 Q 121.37 -11.18 121.37 -9.52 L 121.37 -9.52 Q 121.37 -7.7 120.38 -7.38 L 120.38 -7.38 Q 119.94 -7.23 119.03 -7.23 L 119.03 -7.23 L 113.93 -7.23 Z M 148.12 -18.77 L 148.12 -18.77 Q 149.66 -18.02 149.66 -17.11 L 149.66 -17.11 Q 149.66 -16.69 149.27 -15.86 L 149.27 -15.86 L 142.09 -1.3 Q 141.8 -0.73 141.22 -0.38 Q 140.63 -0.03 140.01 -0.03 L 140.01 -0.03 L 139.75 -0.03 Q 139.1 -0.03 138.52 -0.38 Q 137.93 -0.73 137.64 -1.3 L 137.64 -1.3 L 130.47 -15.86 Q 130.08 -16.69 130.08 -17.11 L 130.08 -17.11 Q 130.08 -18.02 131.61 -18.77 L 131.61 -18.77 Q 132.47 -19.21 132.93 -19.21 Q 133.38 -19.21 133.61 -19.11 Q 133.85 -19.01 134.06 -18.75 L 134.06 -18.75 Q 134.29 -18.43 134.49 -18.06 Q 134.68 -17.68 135.49 -15.9 Q 136.29 -14.12 137.22 -12.12 Q 138.14 -10.11 138.96 -8.33 Q 139.78 -6.55 139.88 -6.34 L 139.88 -6.34 L 145.08 -17.73 Q 145.29 -18.23 145.44 -18.51 L 145.44 -18.51 Q 145.91 -19.21 146.59 -19.21 Q 147.26 -19.21 148.12 -18.77 Z M 160.5 -7.23 L 160.5 -4.6 L 168.51 -4.6 Q 169.1 -4.6 169.4 -4.56 Q 169.7 -4.52 170.09 -4.32 L 170.09 -4.32 Q 170.79 -3.95 170.79 -2.29 L 170.79 -2.29 Q 170.79 -0.47 169.83 -0.16 L 169.83 -0.16 Q 169.39 0 168.48 0 L 168.48 0 L 158.18 0 Q 156.36 0 156.05 -0.99 L 156.05 -0.99 Q 155.9 -1.4 155.9 -2.31 L 155.9 -2.31 L 155.9 -16.77 Q 155.9 -18.1 156.39 -18.58 Q 156.88 -19.06 158.26 -19.06 L 158.26 -19.06 L 168.51 -19.06 Q 169.1 -19.06 169.4 -19.02 Q 169.7 -18.98 170.09 -18.77 L 170.09 -18.77 Q 170.79 -18.41 170.79 -16.74 L 170.79 -16.74 Q 170.79 -14.92 169.83 -14.61 L 169.83 -14.61 Q 169.39 -14.46 168.48 -14.46 L 168.48 -14.46 L 160.5 -14.46 L 160.5 -11.83 L 165.65 -11.83 Q 166.24 -11.83 166.54 -11.79 Q 166.84 -11.75 167.23 -11.54 L 167.23 -11.54 Q 167.93 -11.18 167.93 -9.52 L 167.93 -9.52 Q 167.93 -7.7 166.95 -7.38 L 166.95 -7.38 Q 166.5 -7.23 165.59 -7.23 L 165.59 -7.23 L 160.5 -7.23 Z M 181.9 -16.74 L 181.9 -3.85 L 188.97 -3.85 Q 189.83 -3.85 190.22 -3.65 Q 190.61 -3.46 190.74 -3.04 Q 190.87 -2.63 190.87 -1.94 Q 190.87 -1.25 190.74 -0.83 Q 190.61 -0.42 190.29 -0.26 L 190.29 -0.26 Q 189.8 0 188.94 0 L 188.94 0 L 179.58 0 Q 177.76 0 177.45 -0.99 L 177.45 -0.99 Q 177.29 -1.4 177.29 -2.31 L 177.29 -2.31 L 177.29 -16.77 Q 177.29 -17.37 177.33 -17.67 Q 177.37 -17.97 177.58 -18.36 L 177.58 -18.36 Q 177.94 -19.06 179.61 -19.06 L 179.61 -19.06 Q 181.43 -19.06 181.77 -18.1 L 181.77 -18.1 Q 181.9 -17.65 181.9 -16.74 L 181.9 -16.74 Z M 206.31 -19.29 L 206.31 -19.29 Q 210.16 -19.29 212.99 -16.51 Q 215.83 -13.73 215.83 -9.61 Q 215.83 -5.49 213.12 -2.59 Q 210.42 0.31 206.47 0.31 Q 202.51 0.31 199.75 -2.55 Q 196.98 -5.41 196.98 -9.36 L 196.98 -9.36 Q 196.98 -11.52 197.76 -13.4 Q 198.54 -15.29 199.84 -16.56 Q 201.14 -17.84 202.83 -18.56 Q 204.52 -19.29 206.31 -19.29 Z M 201.58 -9.49 Q 201.58 -7.18 203.07 -5.73 Q 204.57 -4.29 206.41 -4.29 Q 208.26 -4.29 209.74 -5.69 Q 211.22 -7.1 211.22 -9.46 Q 211.22 -11.83 209.73 -13.26 Q 208.23 -14.69 206.39 -14.69 Q 204.54 -14.69 203.06 -13.25 Q 201.58 -11.8 201.58 -9.49 Z M 236.39 -15.21 Q 237.07 -13.83 237.07 -12.14 Q 237.07 -10.45 236.39 -9.09 Q 235.72 -7.72 234.65 -6.92 L 234.65 -6.92 Q 232.49 -5.25 230.18 -5.25 L 230.18 -5.25 L 226.93 -5.25 L 226.93 -2.31 Q 226.93 -1.72 226.89 -1.42 Q 226.85 -1.12 226.64 -0.73 L 226.64 -0.73 Q 226.28 -0.03 224.61 -0.03 L 224.61 -0.03 Q 222.79 -0.03 222.48 -0.99 L 222.48 -0.99 Q 222.33 -1.43 222.33 -2.34 L 222.33 -2.34 L 222.33 -16.77 Q 222.33 -17.37 222.37 -17.67 Q 222.4 -17.97 222.61 -18.36 L 222.61 -18.36 Q 222.98 -19.06 224.64 -19.06 L 224.64 -19.06 L 230.2 -19.06 Q 232.49 -19.06 234.65 -17.39 L 234.65 -17.39 Q 235.72 -16.59 236.39 -15.21 Z M 230.2 -9.85 Q 230.98 -9.85 231.74 -10.43 Q 232.49 -11 232.49 -12.14 Q 232.49 -13.29 231.74 -13.87 Q 230.98 -14.46 230.18 -14.46 L 230.18 -14.46 L 226.93 -14.46 L 226.93 -9.85 L 230.2 -9.85 Z M 263.82 -18.33 L 263.82 -18.33 Q 264.03 -17.94 264.07 -17.63 Q 264.11 -17.32 264.11 -16.72 L 264.11 -16.72 L 264.11 -2.29 Q 264.11 -0.49 263.12 -0.18 L 263.12 -0.18 Q 262.63 -0.03 261.87 -0.03 Q 261.12 -0.03 260.68 -0.16 Q 260.23 -0.29 260 -0.47 Q 259.77 -0.65 259.64 -0.99 L 259.64 -0.99 Q 259.51 -1.43 259.51 -2.34 L 259.51 -2.34 L 259.51 -11.05 Q 258.86 -10.24 257.61 -8.49 Q 256.36 -6.73 256.02 -6.29 Q 255.68 -5.85 255.55 -5.68 Q 255.42 -5.51 254.92 -5.21 Q 254.41 -4.91 253.83 -4.91 Q 253.24 -4.91 252.76 -5.19 Q 252.28 -5.46 252.07 -5.72 L 252.07 -5.72 L 251.86 -6.01 Q 251.34 -6.66 249.81 -8.78 Q 248.27 -10.89 248.14 -11.05 L 248.14 -11.05 L 248.14 -2.29 Q 248.14 -1.69 248.11 -1.39 Q 248.07 -1.09 247.86 -0.73 L 247.86 -0.73 Q 247.47 -0.03 245.83 -0.03 L 245.83 -0.03 Q 244.24 -0.03 243.85 -0.73 L 243.85 -0.73 Q 243.65 -1.09 243.61 -1.4 Q 243.57 -1.72 243.57 -2.34 L 243.57 -2.34 L 243.57 -16.77 Q 243.57 -17.37 243.61 -17.67 Q 243.65 -17.97 243.85 -18.36 L 243.85 -18.36 Q 244.24 -19.03 245.88 -19.03 L 245.88 -19.03 Q 246.58 -19.03 247.09 -18.86 Q 247.6 -18.69 247.75 -18.51 L 247.75 -18.51 L 247.91 -18.36 L 253.81 -10.61 Q 258.23 -16.46 259.71 -18.33 L 259.71 -18.33 Q 260.16 -19.03 261.81 -19.03 Q 263.46 -19.03 263.82 -18.33 Z M 275.6 -7.23 L 275.6 -4.6 L 283.61 -4.6 Q 284.21 -4.6 284.51 -4.56 Q 284.8 -4.52 285.19 -4.32 L 285.19 -4.32 Q 285.9 -3.95 285.9 -2.29 L 285.9 -2.29 Q 285.9 -0.47 284.93 -0.16 L 284.93 -0.16 Q 284.49 0 283.58 0 L 283.58 0 L 273.29 0 Q 271.47 0 271.15 -0.99 L 271.15 -0.99 Q 271 -1.4 271 -2.31 L 271 -2.31 L 271 -16.77 Q 271 -18.1 271.49 -18.58 Q 271.99 -19.06 273.36 -19.06 L 273.36 -19.06 L 283.61 -19.06 Q 284.21 -19.06 284.51 -19.02 Q 284.8 -18.98 285.19 -18.77 L 285.19 -18.77 Q 285.9 -18.41 285.9 -16.74 L 285.9 -16.74 Q 285.9 -14.92 284.93 -14.61 L 284.93 -14.61 Q 284.49 -14.46 283.58 -14.46 L 283.58 -14.46 L 275.6 -14.46 L 275.6 -11.83 L 280.75 -11.83 Q 281.35 -11.83 281.65 -11.79 Q 281.94 -11.75 282.33 -11.54 L 282.33 -11.54 Q 283.04 -11.18 283.04 -9.52 L 283.04 -9.52 Q 283.04 -7.7 282.05 -7.38 L 282.05 -7.38 Q 281.61 -7.23 280.7 -7.23 L 280.7 -7.23 L 275.6 -7.23 Z M 304.71 -18.27 Q 304.95 -18.72 305.45 -18.88 Q 305.94 -19.03 306.68 -19.03 Q 307.42 -19.03 307.88 -18.9 Q 308.33 -18.77 308.56 -18.59 Q 308.78 -18.41 308.88 -18.04 L 308.88 -18.04 Q 309.04 -17.63 309.04 -16.72 L 309.04 -16.72 L 309.04 -2.29 Q 309.04 -1.66 309 -1.38 Q 308.96 -1.09 308.75 -0.7 L 308.75 -0.7 Q 308.39 0 306.72 0 L 306.72 0 Q 305.71 0 305.32 -0.16 Q 304.93 -0.31 304.67 -0.65 L 304.67 -0.65 Q 298.82 -8.45 296.97 -10.84 L 296.97 -10.84 L 296.97 -2.29 Q 296.97 -1.66 296.93 -1.38 Q 296.89 -1.09 296.69 -0.7 L 296.69 -0.7 Q 296.32 0 294.66 0 L 294.66 0 Q 293.05 0 292.68 -0.7 L 292.68 -0.7 Q 292.47 -1.09 292.44 -1.4 Q 292.4 -1.72 292.4 -2.31 L 292.4 -2.31 L 292.4 -16.82 Q 292.4 -17.81 292.64 -18.27 Q 292.89 -18.72 293.38 -18.88 Q 293.88 -19.03 294.66 -19.03 Q 295.44 -19.03 295.89 -18.89 Q 296.35 -18.75 296.53 -18.56 L 296.53 -18.56 Q 296.63 -18.49 297.13 -17.89 L 297.13 -17.89 Q 302.61 -10.43 304.46 -8.03 L 304.46 -8.03 L 304.46 -16.82 Q 304.46 -17.81 304.71 -18.27 Z M 317.17 -19.08 L 317.17 -19.08 L 331.63 -19.08 Q 332.46 -19.08 332.85 -18.89 Q 333.24 -18.69 333.37 -18.28 Q 333.5 -17.86 333.5 -17.19 Q 333.5 -16.51 333.37 -16.11 Q 333.24 -15.7 332.93 -15.55 L 332.93 -15.55 Q 332.46 -15.31 331.6 -15.31 L 331.6 -15.31 L 326.64 -15.31 L 326.64 -2.24 Q 326.64 -1.64 326.6 -1.35 Q 326.56 -1.07 326.37 -0.69 Q 326.17 -0.31 325.68 -0.16 Q 325.18 0 324.38 0 Q 323.57 0 323.09 -0.16 Q 322.61 -0.31 322.41 -0.69 Q 322.22 -1.07 322.18 -1.37 Q 322.14 -1.66 322.14 -2.26 L 322.14 -2.26 L 322.14 -15.31 L 317.15 -15.31 Q 316.32 -15.31 315.93 -15.51 Q 315.54 -15.7 315.41 -16.12 Q 315.28 -16.54 315.28 -17.21 Q 315.28 -17.89 315.41 -18.29 Q 315.54 -18.69 315.85 -18.85 L 315.85 -18.85 Q 316.32 -19.08 317.17 -19.08 Z" stroke-linecap="round" />
</g>
</g>
</g>
</svg>